<svg width="327" height="70" viewBox="0 0 327 70" fill="none" xmlns="http://www.w3.org/2000/svg">
<g opacity="0.8">
<path d="M196.959 8.37134H193.065L185.903 15.3873V8.37134H183.157V24.6565H185.903V17.6642L193.065 24.6565H196.959L188.673 16.5159L196.959 8.37134Z" fill="#1D1D1B"/>
<path d="M168.445 10.7665C167.661 11.5107 167.041 12.4048 166.623 13.3936C166.204 14.3825 165.997 15.445 166.012 16.5159C165.994 17.5864 166.201 18.6492 166.619 19.6377C167.038 20.6263 167.659 21.5194 168.445 22.2612C169.611 23.4087 171.097 24.1889 172.716 24.5023C174.335 24.8157 176.012 24.6482 177.533 24.0212C178.518 23.6042 179.413 23.007 180.171 22.2612L178.212 20.3593C177.438 21.117 176.454 21.6325 175.382 21.8408C174.311 22.0491 173.201 21.9409 172.193 21.5297C171.184 21.1186 170.322 20.423 169.715 19.5306C169.108 18.6383 168.783 17.5893 168.782 16.5159C168.782 15.4421 169.107 14.3926 169.715 13.5003C170.322 12.6079 171.185 11.9128 172.195 11.503C173.205 11.0932 174.315 10.987 175.386 11.198C176.457 11.409 177.441 11.9276 178.212 12.6882L180.171 10.7665C179.414 10.0184 178.519 9.41968 177.533 9.00267C176.011 8.37821 174.335 8.21248 172.716 8.52654C171.098 8.84061 169.611 9.62026 168.445 10.7665Z" fill="#1D1D1B"/>
<path d="M134.339 24.6565H145.37V21.9337H137.084V8.37134H134.339V24.6565Z" fill="#1D1D1B"/>
<path d="M124.997 16.5159L119.457 16.4922V11.0941H124.997C125.722 11.1002 126.416 11.3855 126.929 11.8886C127.442 12.3917 127.735 13.0727 127.743 13.7852C127.742 14.5029 127.453 15.1913 126.939 15.7011C126.425 16.2108 125.727 16.5007 124.997 16.508V16.5159ZM129.533 16.8592C130.177 15.9596 130.52 14.8851 130.513 13.7852C130.525 13.0733 130.389 12.3665 130.113 11.7083C129.836 11.05 129.426 10.4542 128.907 9.95761C128.402 9.44826 127.797 9.04557 127.128 8.77416C126.459 8.50279 125.741 8.36839 125.017 8.37921H116.712V24.6565H119.457V19.2347H124.134L127.346 24.6565H130.525L127.097 18.8124C128.089 18.4184 128.938 17.7407 129.533 16.8671" fill="#1D1D1B"/>
<path d="M112.332 8.37134H109.586V24.6565H112.332V8.37134Z" fill="#1D1D1B"/>
<path d="M98.2857 14.4482L100.722 19.2347H95.8489L98.2857 14.4482ZM90 24.6565H93.083L94.4881 21.9337H102.115L103.5 24.6565H106.579L98.2857 8.37134L90 24.6565Z" fill="#1D1D1B"/>
<path d="M160.99 10.7508C160.57 10.334 160.107 9.96112 159.609 9.63799L158.537 12.2423C158.709 12.3784 158.874 12.5233 159.031 12.6764C159.55 13.173 159.96 13.7688 160.237 14.427C160.513 15.0853 160.649 15.7921 160.637 16.504C160.637 17.2158 160.495 17.9207 160.218 18.5783C159.941 19.2359 159.534 19.8333 159.022 20.3362C158.51 20.8391 157.901 21.2377 157.232 21.5092C156.563 21.7806 155.845 21.9195 155.121 21.9179C154.924 21.9179 154.72 21.9179 154.547 21.8943L153.479 24.4947C154.021 24.5941 154.57 24.643 155.121 24.6407C156.214 24.6612 157.3 24.4593 158.31 24.0478C159.32 23.6363 160.232 23.024 160.99 22.2494C161.784 21.5129 162.414 20.6214 162.837 19.6321C163.261 18.6427 163.47 17.5773 163.451 16.504C163.464 15.4303 163.253 14.3654 162.83 13.3755C162.407 12.3857 161.78 11.4922 160.99 10.7508ZM149.609 16.504C149.606 15.7913 149.747 15.0851 150.024 14.4261C150.3 13.7671 150.706 13.1684 151.219 12.6644C151.732 12.1604 152.341 11.7612 153.011 11.4896C153.681 11.2181 154.4 11.0796 155.125 11.0822C155.323 11.0815 155.522 11.0907 155.719 11.1098L156.787 8.50943C156.239 8.40865 155.683 8.35846 155.125 8.35948C154.034 8.33853 152.951 8.54025 151.944 8.95186C150.936 9.36342 150.026 9.976 149.272 10.7508C148.488 11.4957 147.869 12.3905 147.45 13.3799C147.032 14.3694 146.824 15.4326 146.839 16.504C146.822 17.5745 147.029 18.637 147.448 19.6255C147.866 20.6139 148.487 21.5071 149.272 22.2494C149.698 22.6726 150.169 23.0496 150.677 23.374L151.757 20.7933C151.573 20.6536 151.396 20.5048 151.227 20.3474C150.712 19.8448 150.304 19.2457 150.028 18.5856C149.753 17.9254 149.614 17.2176 149.621 16.504" fill="#1D1D1B"/>
<path d="M149.655 25.8228L147.986 29.8837L150.796 30.9997L152.465 26.9388L149.655 25.8228Z" fill="#808A8E"/>
<path d="M159.449 2L157.78 6.06082L160.59 7.17678L162.259 3.11596L159.449 2Z" fill="#808A8E"/>
<path d="M201.535 10.6283H200.544V9.66163H201.535C201.665 9.66163 201.79 9.71222 201.883 9.80238C201.975 9.89254 202.028 10.015 202.029 10.143C202.03 10.2075 202.018 10.2715 201.993 10.3311C201.968 10.3908 201.931 10.4449 201.884 10.4902C201.838 10.5353 201.784 10.5708 201.724 10.5945C201.664 10.6183 201.6 10.6298 201.535 10.6283ZM202.338 10.6915C202.454 10.53 202.516 10.3368 202.514 10.1391C202.511 9.88429 202.407 9.6408 202.224 9.46024C202.042 9.27973 201.794 9.17647 201.535 9.17236H200.05V12.0922H200.544V11.1216H201.382L201.957 12.0922H202.527L201.936 11.0426C202.115 10.9737 202.268 10.8525 202.374 10.6954" fill="#1D1D1B"/>
<path d="M201.238 13.3906C200.692 13.3906 200.157 13.2313 199.703 12.9328C199.249 12.6344 198.895 12.2101 198.686 11.7138C198.477 11.2175 198.423 10.6715 198.53 10.1447C198.636 9.61795 198.9 9.13425 199.287 8.75472C199.673 8.3752 200.166 8.11693 200.702 8.01264C201.238 7.90831 201.793 7.96264 202.298 8.16874C202.803 8.3748 203.234 8.72339 203.536 9.1704C203.839 9.61736 204.001 10.1426 204 10.6797C203.999 11.3991 203.707 12.0886 203.19 12.5969C202.672 13.1052 201.97 13.3906 201.238 13.3906ZM201.238 8.36738C200.773 8.36738 200.318 8.50301 199.931 8.75709C199.544 9.01117 199.243 9.37231 199.065 9.79485C198.887 10.2173 198.84 10.6823 198.931 11.1308C199.022 11.5794 199.246 11.9914 199.575 12.3148C199.904 12.6382 200.323 12.8584 200.779 12.9477C201.235 13.0369 201.709 12.9911 202.139 12.8161C202.568 12.6411 202.936 12.3447 203.194 11.9644C203.452 11.5842 203.591 11.1371 203.591 10.6797C203.585 10.0695 203.335 9.486 202.895 9.056C202.454 8.62596 201.859 8.38419 201.238 8.38317V8.36738Z" fill="#1D1D1B"/>
</g>
<circle cx="35" cy="35" r="35" fill="#ADCC14"/>
<path d="M35 0C30.4037 -5.48099e-08 25.8525 0.905302 21.6061 2.66422C17.3597 4.42313 13.5013 7.00121 10.2513 10.2513C7.00121 13.5013 4.42313 17.3597 2.66421 21.6061C0.905301 25.8525 -6.94016e-07 30.4037 0 35L35 35L35 0Z" fill="url(#paint0_radial_1418_472)"/>
<path d="M35 70C39.5963 70 44.1475 69.0947 48.3939 67.3358C52.6403 65.5769 56.4987 62.9988 59.7487 59.7487C62.9988 56.4987 65.5769 52.6403 67.3358 48.3939C69.0947 44.1475 70 39.5963 70 35L35 35L35 70Z" fill="url(#paint1_radial_1418_472)"/>
<path d="M90.9219 62V36.2305H98.709L103.385 53.8086L108.008 36.2305H115.812V62H110.979V41.7148L105.863 62H100.854L95.7559 41.7148V62H90.9219ZM120.945 40.8008V36.2305H125.885V40.8008H120.945ZM120.945 62V43.332H125.885V62H120.945ZM147.242 48.8516L142.373 49.7305C142.209 48.7578 141.834 48.0254 141.248 47.5332C140.674 47.041 139.924 46.7949 138.998 46.7949C137.768 46.7949 136.783 47.2227 136.045 48.0781C135.318 48.9219 134.955 50.3398 134.955 52.332C134.955 54.5469 135.324 56.1113 136.062 57.0254C136.812 57.9395 137.814 58.3965 139.068 58.3965C140.006 58.3965 140.773 58.1328 141.371 57.6055C141.969 57.0664 142.391 56.1465 142.637 54.8457L147.488 55.6719C146.984 57.8984 146.018 59.5801 144.588 60.7168C143.158 61.8535 141.242 62.4219 138.84 62.4219C136.109 62.4219 133.93 61.5605 132.301 59.8379C130.684 58.1152 129.875 55.7305 129.875 52.6836C129.875 49.6016 130.689 47.2051 132.318 45.4941C133.947 43.7715 136.15 42.9102 138.928 42.9102C141.201 42.9102 143.006 43.4023 144.342 44.3867C145.689 45.3594 146.656 46.8477 147.242 48.8516ZM155.732 62H150.793V43.332H155.381V45.9863C156.166 44.7324 156.869 43.9062 157.49 43.5078C158.123 43.1094 158.838 42.9102 159.635 42.9102C160.76 42.9102 161.844 43.2207 162.887 43.8418L161.357 48.1484C160.525 47.6094 159.752 47.3398 159.037 47.3398C158.346 47.3398 157.76 47.5332 157.279 47.9199C156.799 48.2949 156.418 48.9805 156.137 49.9766C155.867 50.9727 155.732 53.0586 155.732 56.2344V62ZM163.889 52.4023C163.889 50.7617 164.293 49.1738 165.102 47.6387C165.91 46.1035 167.053 44.9316 168.529 44.123C170.018 43.3145 171.676 42.9102 173.504 42.9102C176.328 42.9102 178.643 43.8301 180.447 45.6699C182.252 47.498 183.154 49.8125 183.154 52.6133C183.154 55.4375 182.24 57.7812 180.412 59.6445C178.596 61.4961 176.305 62.4219 173.539 62.4219C171.828 62.4219 170.193 62.0352 168.635 61.2617C167.088 60.4883 165.91 59.3574 165.102 57.8691C164.293 56.3691 163.889 54.5469 163.889 52.4023ZM168.951 52.666C168.951 54.5176 169.391 55.9355 170.27 56.9199C171.148 57.9043 172.232 58.3965 173.521 58.3965C174.811 58.3965 175.889 57.9043 176.756 56.9199C177.635 55.9355 178.074 54.5059 178.074 52.6309C178.074 50.8027 177.635 49.3965 176.756 48.4121C175.889 47.4277 174.811 46.9355 173.521 46.9355C172.232 46.9355 171.148 47.4277 170.27 48.4121C169.391 49.3965 168.951 50.8145 168.951 52.666ZM186.582 63.2305L192.225 63.916C192.318 64.5723 192.535 65.0234 192.875 65.2695C193.344 65.6211 194.082 65.7969 195.09 65.7969C196.379 65.7969 197.346 65.6035 197.99 65.2168C198.424 64.959 198.752 64.543 198.975 63.9688C199.127 63.5586 199.203 62.8027 199.203 61.7012V58.9766C197.727 60.9922 195.863 62 193.613 62C191.105 62 189.119 60.9395 187.654 58.8184C186.506 57.1426 185.932 55.0566 185.932 52.5605C185.932 49.4316 186.682 47.041 188.182 45.3887C189.693 43.7363 191.568 42.9102 193.807 42.9102C196.115 42.9102 198.02 43.9238 199.52 45.9512V43.332H204.143V60.084C204.143 62.2871 203.961 63.9336 203.598 65.0234C203.234 66.1133 202.725 66.9688 202.068 67.5898C201.412 68.2109 200.533 68.6973 199.432 69.0488C198.342 69.4004 196.959 69.5762 195.283 69.5762C192.119 69.5762 189.875 69.0312 188.551 67.9414C187.227 66.8633 186.564 65.4922 186.564 63.8281C186.564 63.6641 186.57 63.4648 186.582 63.2305ZM190.994 52.2793C190.994 54.2598 191.375 55.7129 192.137 56.6387C192.91 57.5527 193.859 58.0098 194.984 58.0098C196.191 58.0098 197.211 57.541 198.043 56.6035C198.875 55.6543 199.291 54.2539 199.291 52.4023C199.291 50.4688 198.893 49.0332 198.096 48.0957C197.299 47.1582 196.291 46.6895 195.072 46.6895C193.889 46.6895 192.91 47.1523 192.137 48.0781C191.375 48.9922 190.994 50.3926 190.994 52.2793ZM212.738 49.0273L208.256 48.2188C208.76 46.4141 209.627 45.0781 210.857 44.2109C212.088 43.3438 213.916 42.9102 216.342 42.9102C218.545 42.9102 220.186 43.1738 221.264 43.7012C222.342 44.2168 223.098 44.8789 223.531 45.6875C223.977 46.4844 224.199 47.9551 224.199 50.0996L224.146 55.8652C224.146 57.5059 224.223 58.7188 224.375 59.5039C224.539 60.2773 224.838 61.1094 225.271 62H220.385C220.256 61.6719 220.098 61.1855 219.91 60.541C219.828 60.248 219.77 60.0547 219.734 59.9609C218.891 60.7812 217.988 61.3965 217.027 61.8066C216.066 62.2168 215.041 62.4219 213.951 62.4219C212.029 62.4219 210.512 61.9004 209.398 60.8574C208.297 59.8145 207.746 58.4961 207.746 56.9023C207.746 55.8477 207.998 54.9102 208.502 54.0898C209.006 53.2578 209.709 52.625 210.611 52.1914C211.525 51.7461 212.838 51.3594 214.549 51.0312C216.857 50.5977 218.457 50.1934 219.348 49.8184V49.3262C219.348 48.377 219.113 47.7031 218.645 47.3047C218.176 46.8945 217.291 46.6895 215.99 46.6895C215.111 46.6895 214.426 46.8652 213.934 47.2168C213.441 47.5566 213.043 48.1602 212.738 49.0273ZM219.348 53.0352C218.715 53.2461 217.713 53.498 216.342 53.791C214.971 54.084 214.074 54.3711 213.652 54.6523C213.008 55.1094 212.686 55.6895 212.686 56.3926C212.686 57.084 212.943 57.6816 213.459 58.1855C213.975 58.6895 214.631 58.9414 215.428 58.9414C216.318 58.9414 217.168 58.6484 217.977 58.0625C218.574 57.6172 218.967 57.0723 219.154 56.4277C219.283 56.0059 219.348 55.2031 219.348 54.0195V53.0352ZM237.646 43.332V47.2695H234.271V54.793C234.271 56.3164 234.301 57.207 234.359 57.4648C234.43 57.7109 234.576 57.916 234.799 58.0801C235.033 58.2441 235.314 58.3262 235.643 58.3262C236.1 58.3262 236.762 58.168 237.629 57.8516L238.051 61.6836C236.902 62.1758 235.602 62.4219 234.148 62.4219C233.258 62.4219 232.455 62.2754 231.74 61.9824C231.025 61.6777 230.498 61.291 230.158 60.8223C229.83 60.3418 229.602 59.6973 229.473 58.8887C229.367 58.3145 229.314 57.1543 229.314 55.4082V47.2695H227.047V43.332H229.314V39.623L234.271 36.7402V43.332H237.646ZM251.885 56.0586L256.807 56.8848C256.174 58.6895 255.172 60.0664 253.801 61.0156C252.441 61.9531 250.736 62.4219 248.686 62.4219C245.439 62.4219 243.037 61.3613 241.479 59.2402C240.248 57.541 239.633 55.3965 239.633 52.8066C239.633 49.7129 240.441 47.293 242.059 45.5469C243.676 43.7891 245.721 42.9102 248.193 42.9102C250.971 42.9102 253.162 43.8301 254.768 45.6699C256.373 47.498 257.141 50.3047 257.07 54.0898H244.695C244.73 55.5547 245.129 56.6973 245.891 57.5176C246.652 58.3262 247.602 58.7305 248.738 58.7305C249.512 58.7305 250.162 58.5195 250.689 58.0977C251.217 57.6758 251.615 56.9961 251.885 56.0586ZM252.166 51.0664C252.131 49.6367 251.762 48.5527 251.059 47.8145C250.355 47.0645 249.5 46.6895 248.492 46.6895C247.414 46.6895 246.523 47.082 245.82 47.8672C245.117 48.6523 244.771 49.7188 244.783 51.0664H252.166ZM264.594 62L258.688 43.332H263.486L266.984 55.5664L270.201 43.332H274.965L278.076 55.5664L281.645 43.332H286.514L280.52 62H275.773L272.557 49.9941L269.393 62H264.594ZM292.824 49.0273L288.342 48.2188C288.846 46.4141 289.713 45.0781 290.943 44.2109C292.174 43.3438 294.002 42.9102 296.428 42.9102C298.631 42.9102 300.271 43.1738 301.35 43.7012C302.428 44.2168 303.184 44.8789 303.617 45.6875C304.062 46.4844 304.285 47.9551 304.285 50.0996L304.232 55.8652C304.232 57.5059 304.309 58.7188 304.461 59.5039C304.625 60.2773 304.924 61.1094 305.357 62H300.471C300.342 61.6719 300.184 61.1855 299.996 60.541C299.914 60.248 299.855 60.0547 299.82 59.9609C298.977 60.7812 298.074 61.3965 297.113 61.8066C296.152 62.2168 295.127 62.4219 294.037 62.4219C292.115 62.4219 290.598 61.9004 289.484 60.8574C288.383 59.8145 287.832 58.4961 287.832 56.9023C287.832 55.8477 288.084 54.9102 288.588 54.0898C289.092 53.2578 289.795 52.625 290.697 52.1914C291.611 51.7461 292.924 51.3594 294.635 51.0312C296.943 50.5977 298.543 50.1934 299.434 49.8184V49.3262C299.434 48.377 299.199 47.7031 298.73 47.3047C298.262 46.8945 297.377 46.6895 296.076 46.6895C295.197 46.6895 294.512 46.8652 294.02 47.2168C293.527 47.5566 293.129 48.1602 292.824 49.0273ZM299.434 53.0352C298.801 53.2461 297.799 53.498 296.428 53.791C295.057 54.084 294.16 54.3711 293.738 54.6523C293.094 55.1094 292.771 55.6895 292.771 56.3926C292.771 57.084 293.029 57.6816 293.545 58.1855C294.061 58.6895 294.717 58.9414 295.514 58.9414C296.404 58.9414 297.254 58.6484 298.062 58.0625C298.66 57.6172 299.053 57.0723 299.24 56.4277C299.369 56.0059 299.434 55.2031 299.434 54.0195V53.0352ZM306.834 43.332H312.09L316.555 56.5859L320.914 43.332H326.029L319.438 61.2969L318.26 64.5488C317.826 65.6387 317.41 66.4707 317.012 67.0449C316.625 67.6191 316.174 68.082 315.658 68.4336C315.154 68.7969 314.527 69.0781 313.777 69.2773C313.039 69.4766 312.201 69.5762 311.264 69.5762C310.314 69.5762 309.383 69.4766 308.469 69.2773L308.029 65.4102C308.803 65.5625 309.5 65.6387 310.121 65.6387C311.27 65.6387 312.119 65.2988 312.67 64.6191C313.221 63.9512 313.643 63.0957 313.936 62.0527L306.834 43.332Z" fill="#3C3C3B"/>
<defs>
<radialGradient id="paint0_radial_1418_472" cx="0" cy="0" r="1" gradientUnits="userSpaceOnUse" gradientTransform="translate(35 35) rotate(90) scale(35)">
<stop stop-color="#70991F"/>
<stop offset="1" stop-color="#384D0F"/>
</radialGradient>
<radialGradient id="paint1_radial_1418_472" cx="0" cy="0" r="1" gradientUnits="userSpaceOnUse" gradientTransform="translate(35 35) rotate(90) scale(35)">
<stop stop-color="#70991F"/>
<stop offset="1" stop-color="#384D0F"/>
</radialGradient>
</defs>
</svg>
