<svg width="346" height="120" viewBox="0 0 346 120" fill="none" xmlns="http://www.w3.org/2000/svg">
<circle cx="55" cy="46" r="35" fill="#ADCC14"/>
<path d="M55 11C50.4037 11 45.8525 11.9053 41.6061 13.6642C37.3597 15.4231 33.5013 18.0012 30.2513 21.2513C27.0012 24.5013 24.4231 28.3597 22.6642 32.6061C20.9053 36.8525 20 41.4037 20 46L55 46V11Z" fill="url(#paint0_radial_1422_1295)"/>
<path d="M55 81C59.5963 81 64.1475 80.0947 68.3939 78.3358C72.6403 76.5769 76.4987 73.9988 79.7487 70.7487C82.9988 67.4987 85.5769 63.6403 87.3358 59.3939C89.0947 55.1475 90 50.5963 90 46L55 46V81Z" fill="url(#paint1_radial_1422_1295)"/>
<path d="M110.922 73V47.2305H118.709L123.385 64.8086L128.008 47.2305H135.812V73H130.979V52.7148L125.863 73H120.854L115.756 52.7148V73H110.922ZM140.945 51.8008V47.2305H145.885V51.8008H140.945ZM140.945 73V54.332H145.885V73H140.945ZM167.242 59.8516L162.373 60.7305C162.209 59.7578 161.834 59.0254 161.248 58.5332C160.674 58.041 159.924 57.7949 158.998 57.7949C157.768 57.7949 156.783 58.2227 156.045 59.0781C155.318 59.9219 154.955 61.3398 154.955 63.332C154.955 65.5469 155.324 67.1113 156.062 68.0254C156.812 68.9395 157.814 69.3965 159.068 69.3965C160.006 69.3965 160.773 69.1328 161.371 68.6055C161.969 68.0664 162.391 67.1465 162.637 65.8457L167.488 66.6719C166.984 68.8984 166.018 70.5801 164.588 71.7168C163.158 72.8535 161.242 73.4219 158.84 73.4219C156.109 73.4219 153.93 72.5605 152.301 70.8379C150.684 69.1152 149.875 66.7305 149.875 63.6836C149.875 60.6016 150.689 58.2051 152.318 56.4941C153.947 54.7715 156.15 53.9102 158.928 53.9102C161.201 53.9102 163.006 54.4023 164.342 55.3867C165.689 56.3594 166.656 57.8477 167.242 59.8516ZM175.732 73H170.793V54.332H175.381V56.9863C176.166 55.7324 176.869 54.9062 177.49 54.5078C178.123 54.1094 178.838 53.9102 179.635 53.9102C180.76 53.9102 181.844 54.2207 182.887 54.8418L181.357 59.1484C180.525 58.6094 179.752 58.3398 179.037 58.3398C178.346 58.3398 177.76 58.5332 177.279 58.9199C176.799 59.2949 176.418 59.9805 176.137 60.9766C175.867 61.9727 175.732 64.0586 175.732 67.2344V73ZM183.889 63.4023C183.889 61.7617 184.293 60.1738 185.102 58.6387C185.91 57.1035 187.053 55.9316 188.529 55.123C190.018 54.3145 191.676 53.9102 193.504 53.9102C196.328 53.9102 198.643 54.8301 200.447 56.6699C202.252 58.498 203.154 60.8125 203.154 63.6133C203.154 66.4375 202.24 68.7812 200.412 70.6445C198.596 72.4961 196.305 73.4219 193.539 73.4219C191.828 73.4219 190.193 73.0352 188.635 72.2617C187.088 71.4883 185.91 70.3574 185.102 68.8691C184.293 67.3691 183.889 65.5469 183.889 63.4023ZM188.951 63.666C188.951 65.5176 189.391 66.9355 190.27 67.9199C191.148 68.9043 192.232 69.3965 193.521 69.3965C194.811 69.3965 195.889 68.9043 196.756 67.9199C197.635 66.9355 198.074 65.5059 198.074 63.6309C198.074 61.8027 197.635 60.3965 196.756 59.4121C195.889 58.4277 194.811 57.9355 193.521 57.9355C192.232 57.9355 191.148 58.4277 190.27 59.4121C189.391 60.3965 188.951 61.8145 188.951 63.666ZM206.582 74.2305L212.225 74.916C212.318 75.5723 212.535 76.0234 212.875 76.2695C213.344 76.6211 214.082 76.7969 215.09 76.7969C216.379 76.7969 217.346 76.6035 217.99 76.2168C218.424 75.959 218.752 75.543 218.975 74.9688C219.127 74.5586 219.203 73.8027 219.203 72.7012V69.9766C217.727 71.9922 215.863 73 213.613 73C211.105 73 209.119 71.9395 207.654 69.8184C206.506 68.1426 205.932 66.0566 205.932 63.5605C205.932 60.4316 206.682 58.041 208.182 56.3887C209.693 54.7363 211.568 53.9102 213.807 53.9102C216.115 53.9102 218.02 54.9238 219.52 56.9512V54.332H224.143V71.084C224.143 73.2871 223.961 74.9336 223.598 76.0234C223.234 77.1133 222.725 77.9688 222.068 78.5898C221.412 79.2109 220.533 79.6973 219.432 80.0488C218.342 80.4004 216.959 80.5762 215.283 80.5762C212.119 80.5762 209.875 80.0312 208.551 78.9414C207.227 77.8633 206.564 76.4922 206.564 74.8281C206.564 74.6641 206.57 74.4648 206.582 74.2305ZM210.994 63.2793C210.994 65.2598 211.375 66.7129 212.137 67.6387C212.91 68.5527 213.859 69.0098 214.984 69.0098C216.191 69.0098 217.211 68.541 218.043 67.6035C218.875 66.6543 219.291 65.2539 219.291 63.4023C219.291 61.4688 218.893 60.0332 218.096 59.0957C217.299 58.1582 216.291 57.6895 215.072 57.6895C213.889 57.6895 212.91 58.1523 212.137 59.0781C211.375 59.9922 210.994 61.3926 210.994 63.2793ZM232.738 60.0273L228.256 59.2188C228.76 57.4141 229.627 56.0781 230.857 55.2109C232.088 54.3438 233.916 53.9102 236.342 53.9102C238.545 53.9102 240.186 54.1738 241.264 54.7012C242.342 55.2168 243.098 55.8789 243.531 56.6875C243.977 57.4844 244.199 58.9551 244.199 61.0996L244.146 66.8652C244.146 68.5059 244.223 69.7188 244.375 70.5039C244.539 71.2773 244.838 72.1094 245.271 73H240.385C240.256 72.6719 240.098 72.1855 239.91 71.541C239.828 71.248 239.77 71.0547 239.734 70.9609C238.891 71.7812 237.988 72.3965 237.027 72.8066C236.066 73.2168 235.041 73.4219 233.951 73.4219C232.029 73.4219 230.512 72.9004 229.398 71.8574C228.297 70.8145 227.746 69.4961 227.746 67.9023C227.746 66.8477 227.998 65.9102 228.502 65.0898C229.006 64.2578 229.709 63.625 230.611 63.1914C231.525 62.7461 232.838 62.3594 234.549 62.0312C236.857 61.5977 238.457 61.1934 239.348 60.8184V60.3262C239.348 59.377 239.113 58.7031 238.645 58.3047C238.176 57.8945 237.291 57.6895 235.99 57.6895C235.111 57.6895 234.426 57.8652 233.934 58.2168C233.441 58.5566 233.043 59.1602 232.738 60.0273ZM239.348 64.0352C238.715 64.2461 237.713 64.498 236.342 64.791C234.971 65.084 234.074 65.3711 233.652 65.6523C233.008 66.1094 232.686 66.6895 232.686 67.3926C232.686 68.084 232.943 68.6816 233.459 69.1855C233.975 69.6895 234.631 69.9414 235.428 69.9414C236.318 69.9414 237.168 69.6484 237.977 69.0625C238.574 68.6172 238.967 68.0723 239.154 67.4277C239.283 67.0059 239.348 66.2031 239.348 65.0195V64.0352ZM257.646 54.332V58.2695H254.271V65.793C254.271 67.3164 254.301 68.207 254.359 68.4648C254.43 68.7109 254.576 68.916 254.799 69.0801C255.033 69.2441 255.314 69.3262 255.643 69.3262C256.1 69.3262 256.762 69.168 257.629 68.8516L258.051 72.6836C256.902 73.1758 255.602 73.4219 254.148 73.4219C253.258 73.4219 252.455 73.2754 251.74 72.9824C251.025 72.6777 250.498 72.291 250.158 71.8223C249.83 71.3418 249.602 70.6973 249.473 69.8887C249.367 69.3145 249.314 68.1543 249.314 66.4082V58.2695H247.047V54.332H249.314V50.623L254.271 47.7402V54.332H257.646ZM271.885 67.0586L276.807 67.8848C276.174 69.6895 275.172 71.0664 273.801 72.0156C272.441 72.9531 270.736 73.4219 268.686 73.4219C265.439 73.4219 263.037 72.3613 261.479 70.2402C260.248 68.541 259.633 66.3965 259.633 63.8066C259.633 60.7129 260.441 58.293 262.059 56.5469C263.676 54.7891 265.721 53.9102 268.193 53.9102C270.971 53.9102 273.162 54.8301 274.768 56.6699C276.373 58.498 277.141 61.3047 277.07 65.0898H264.695C264.73 66.5547 265.129 67.6973 265.891 68.5176C266.652 69.3262 267.602 69.7305 268.738 69.7305C269.512 69.7305 270.162 69.5195 270.689 69.0977C271.217 68.6758 271.615 67.9961 271.885 67.0586ZM272.166 62.0664C272.131 60.6367 271.762 59.5527 271.059 58.8145C270.355 58.0645 269.5 57.6895 268.492 57.6895C267.414 57.6895 266.523 58.082 265.82 58.8672C265.117 59.6523 264.771 60.7188 264.783 62.0664H272.166ZM284.594 73L278.688 54.332H283.486L286.984 66.5664L290.201 54.332H294.965L298.076 66.5664L301.645 54.332H306.514L300.52 73H295.773L292.557 60.9941L289.393 73H284.594ZM312.824 60.0273L308.342 59.2188C308.846 57.4141 309.713 56.0781 310.943 55.2109C312.174 54.3438 314.002 53.9102 316.428 53.9102C318.631 53.9102 320.271 54.1738 321.35 54.7012C322.428 55.2168 323.184 55.8789 323.617 56.6875C324.062 57.4844 324.285 58.9551 324.285 61.0996L324.232 66.8652C324.232 68.5059 324.309 69.7188 324.461 70.5039C324.625 71.2773 324.924 72.1094 325.357 73H320.471C320.342 72.6719 320.184 72.1855 319.996 71.541C319.914 71.248 319.855 71.0547 319.82 70.9609C318.977 71.7812 318.074 72.3965 317.113 72.8066C316.152 73.2168 315.127 73.4219 314.037 73.4219C312.115 73.4219 310.598 72.9004 309.484 71.8574C308.383 70.8145 307.832 69.4961 307.832 67.9023C307.832 66.8477 308.084 65.9102 308.588 65.0898C309.092 64.2578 309.795 63.625 310.697 63.1914C311.611 62.7461 312.924 62.3594 314.635 62.0312C316.943 61.5977 318.543 61.1934 319.434 60.8184V60.3262C319.434 59.377 319.199 58.7031 318.73 58.3047C318.262 57.8945 317.377 57.6895 316.076 57.6895C315.197 57.6895 314.512 57.8652 314.02 58.2168C313.527 58.5566 313.129 59.1602 312.824 60.0273ZM319.434 64.0352C318.801 64.2461 317.799 64.498 316.428 64.791C315.057 65.084 314.16 65.3711 313.738 65.6523C313.094 66.1094 312.771 66.6895 312.771 67.3926C312.771 68.084 313.029 68.6816 313.545 69.1855C314.061 69.6895 314.717 69.9414 315.514 69.9414C316.404 69.9414 317.254 69.6484 318.062 69.0625C318.66 68.6172 319.053 68.0723 319.24 67.4277C319.369 67.0059 319.434 66.2031 319.434 65.0195V64.0352ZM326.834 54.332H332.09L336.555 67.5859L340.914 54.332H346.029L339.438 72.2969L338.26 75.5488C337.826 76.6387 337.41 77.4707 337.012 78.0449C336.625 78.6191 336.174 79.082 335.658 79.4336C335.154 79.7969 334.527 80.0781 333.777 80.2773C333.039 80.4766 332.201 80.5762 331.264 80.5762C330.314 80.5762 329.383 80.4766 328.469 80.2773L328.029 76.4102C328.803 76.5625 329.5 76.6387 330.121 76.6387C331.27 76.6387 332.119 76.2988 332.67 75.6191C333.221 74.9512 333.643 74.0957 333.936 73.0527L326.834 54.332Z" fill="white"/>
<path d="M110.965 39L117.562 21.8203H120.012L127.043 39H124.453L122.449 33.7969H115.266L113.379 39H110.965ZM115.922 31.9453H121.746L119.953 27.1875C119.406 25.7422 119 24.5547 118.734 23.625C118.516 24.7266 118.207 25.8203 117.809 26.9062L115.922 31.9453ZM128.842 24.2461V21.8203H130.951V24.2461H128.842ZM128.842 39V26.5547H130.951V39H128.842ZM134.39 39V26.5547H136.289V28.4414C136.773 27.5586 137.218 26.9766 137.625 26.6953C138.039 26.4141 138.492 26.2734 138.984 26.2734C139.695 26.2734 140.417 26.5 141.152 26.9531L140.425 28.9102C139.91 28.6055 139.394 28.4531 138.878 28.4531C138.417 28.4531 138.003 28.5938 137.636 28.875C137.269 29.1484 137.007 29.5312 136.851 30.0234C136.617 30.7734 136.5 31.5938 136.5 32.4844V39H134.39ZM142.599 39V21.8203H144.708V39H142.599ZM147.444 32.7773C147.444 30.4727 148.085 28.7656 149.366 27.6562C150.437 26.7344 151.741 26.2734 153.28 26.2734C154.991 26.2734 156.39 26.8359 157.476 27.9609C158.562 29.0781 159.105 30.625 159.105 32.6016C159.105 34.2031 158.862 35.4648 158.378 36.3867C157.901 37.3008 157.202 38.0117 156.28 38.5195C155.366 39.0273 154.366 39.2812 153.28 39.2812C151.538 39.2812 150.128 38.7227 149.05 37.6055C147.98 36.4883 147.444 34.8789 147.444 32.7773ZM149.612 32.7773C149.612 34.3711 149.96 35.5664 150.655 36.3633C151.351 37.1523 152.226 37.5469 153.28 37.5469C154.327 37.5469 155.198 37.1484 155.894 36.3516C156.589 35.5547 156.937 34.3398 156.937 32.707C156.937 31.168 156.585 30.0039 155.882 29.2148C155.187 28.418 154.319 28.0195 153.28 28.0195C152.226 28.0195 151.351 28.4141 150.655 29.2031C149.96 29.9922 149.612 31.1836 149.612 32.7773ZM169.95 34.4414L172.024 34.7109C171.798 36.1406 171.216 37.2617 170.278 38.0742C169.348 38.8789 168.204 39.2812 166.845 39.2812C165.141 39.2812 163.77 38.7266 162.731 37.6172C161.7 36.5 161.184 34.9023 161.184 32.8242C161.184 31.4805 161.407 30.3047 161.852 29.2969C162.298 28.2891 162.973 27.5352 163.88 27.0352C164.794 26.5273 165.786 26.2734 166.856 26.2734C168.208 26.2734 169.313 26.6172 170.173 27.3047C171.032 27.9844 171.583 28.9531 171.825 30.2109L169.774 30.5273C169.579 29.6914 169.231 29.0625 168.731 28.6406C168.239 28.2188 167.641 28.0078 166.938 28.0078C165.876 28.0078 165.013 28.3906 164.348 29.1562C163.684 29.9141 163.352 31.1172 163.352 32.7656C163.352 34.4375 163.673 35.6523 164.313 36.4102C164.954 37.168 165.79 37.5469 166.821 37.5469C167.649 37.5469 168.341 37.293 168.895 36.7852C169.45 36.2773 169.802 35.4961 169.95 34.4414ZM174.081 39V21.8203H176.19V31.6172L181.182 26.5547H183.913L179.155 31.1719L184.393 39H181.792L177.678 32.6367L176.19 34.0664V39H174.081Z" fill="white"/>
<defs>
<radialGradient id="paint0_radial_1422_1295" cx="0" cy="0" r="1" gradientUnits="userSpaceOnUse" gradientTransform="translate(55 46) rotate(90) scale(35)">
<stop stop-color="#70991F"/>
<stop offset="1" stop-color="#384D0F"/>
</radialGradient>
<radialGradient id="paint1_radial_1422_1295" cx="0" cy="0" r="1" gradientUnits="userSpaceOnUse" gradientTransform="translate(55 46) rotate(90) scale(35)">
<stop stop-color="#70991F"/>
<stop offset="1" stop-color="#384D0F"/>
</radialGradient>
</defs>
</svg>
