<?xml version="1.0" encoding="UTF-8" standalone="no"?>
<svg
   width="326.02899"
   height="100"
   viewBox="0 0 326.02899 100"
   fill="none"
   version="1.1"
   id="svg17"
   sodipodi:docname="Microgateway_Labeled_Negative.svg"
   inkscape:version="1.4 (e7c3feb100, 2024-10-09)"
   xmlns:inkscape="http://www.inkscape.org/namespaces/inkscape"
   xmlns:sodipodi="http://sodipodi.sourceforge.net/DTD/sodipodi-0.dtd"
   xmlns="http://www.w3.org/2000/svg"
   xmlns:svg="http://www.w3.org/2000/svg">
  <sodipodi:namedview
     id="namedview17"
     pagecolor="#ffffff"
     bordercolor="#000000"
     borderopacity="0.25"
     inkscape:showpageshadow="2"
     inkscape:pageopacity="0.0"
     inkscape:pagecheckerboard="0"
     inkscape:deskcolor="#d1d1d1"
     inkscape:zoom="2.4575026"
     inkscape:cx="291.14923"
     inkscape:cy="65.717123"
     inkscape:window-width="2556"
     inkscape:window-height="1400"
     inkscape:window-x="2560"
     inkscape:window-y="38"
     inkscape:window-maximized="1"
     inkscape:current-layer="svg17" />
  <g
     opacity="0.8"
     id="g11"
     transform="translate(-20,-11)">
    <path
       d="m 216.959,19.3713 h -3.894 l -7.162,7.016 v -7.016 h -2.746 v 16.2852 h 2.746 v -6.9923 l 7.162,6.9923 h 3.894 l -8.286,-8.1406 z"
       fill="#ffffff"
       id="path1" />
    <path
       d="m 188.445,21.7665 c -0.784,0.7442 -1.404,1.6383 -1.822,2.6271 -0.419,0.9889 -0.626,2.0514 -0.611,3.1223 -0.018,1.0705 0.189,2.1333 0.607,3.1218 0.419,0.9886 1.04,1.8817 1.826,2.6235 1.166,1.1475 2.652,1.9277 4.271,2.2411 1.619,0.3134 3.296,0.1459 4.817,-0.4811 0.985,-0.417 1.88,-1.0142 2.638,-1.76 l -1.959,-1.9019 c -0.774,0.7577 -1.758,1.2732 -2.83,1.4815 -1.071,0.2083 -2.181,0.1001 -3.189,-0.3111 -1.009,-0.4111 -1.871,-1.1067 -2.478,-1.9991 -0.607,-0.8923 -0.932,-1.9413 -0.933,-3.0147 0,-1.0738 0.325,-2.1233 0.933,-3.0156 0.607,-0.8924 1.47,-1.5875 2.48,-1.9973 1.01,-0.4098 2.12,-0.516 3.191,-0.305 1.071,0.211 2.055,0.7296 2.826,1.4902 l 1.959,-1.9217 c -0.757,-0.7481 -1.652,-1.3468 -2.638,-1.7638 -1.522,-0.6245 -3.198,-0.7902 -4.817,-0.4762 -1.618,0.3141 -3.105,1.0938 -4.271,2.24 z"
       fill="#ffffff"
       id="path2" />
    <path
       d="m 154.339,35.6565 h 11.031 v -2.7228 h -8.286 V 19.3713 h -2.745 z"
       fill="#ffffff"
       id="path3" />
    <path
       d="m 144.997,27.5159 -5.54,-0.0237 v -5.3981 h 5.54 c 0.725,0.0061 1.419,0.2914 1.932,0.7945 0.514,0.5031 0.806,1.1841 0.814,1.8966 -0.001,0.7177 -0.29,1.4061 -0.804,1.9159 -0.514,0.5097 -1.212,0.7996 -1.942,0.8069 z m 4.537,0.3433 c 0.643,-0.8996 0.986,-1.9741 0.979,-3.074 0.012,-0.7119 -0.124,-1.4187 -0.4,-2.0769 -0.276,-0.6583 -0.687,-1.2541 -1.206,-1.7507 -0.505,-0.5093 -1.11,-0.912 -1.779,-1.1834 -0.669,-0.2714 -1.387,-0.4058 -2.111,-0.395 h -8.305 v 16.2773 h 2.745 v -5.4218 h 4.677 l 3.212,5.4218 h 3.179 l -3.428,-5.8441 c 0.992,-0.394 1.841,-1.0717 2.437,-1.9453"
       fill="#ffffff"
       id="path4" />
    <path
       d="m 132.332,19.3713 h -2.746 v 16.2852 h 2.746 z"
       fill="#ffffff"
       id="path5" />
    <path
       d="m 118.286,25.4482 2.436,4.7865 h -4.873 z M 110,35.6565 h 3.083 l 1.405,-2.7228 h 7.627 l 1.385,2.7228 h 3.079 l -8.293,-16.2852 z"
       fill="#ffffff"
       id="path6" />
    <path
       d="m 180.99,21.7508 c -0.42,-0.4168 -0.883,-0.7897 -1.381,-1.1128 l -1.072,2.6043 c 0.172,0.1361 0.337,0.281 0.494,0.4341 0.519,0.4966 0.929,1.0924 1.206,1.7506 0.276,0.6583 0.412,1.3651 0.4,2.077 0,0.7118 -0.142,1.4167 -0.419,2.0743 -0.277,0.6576 -0.684,1.255 -1.196,1.7579 -0.512,0.5029 -1.121,0.9015 -1.79,1.173 -0.669,0.2714 -1.387,0.4103 -2.111,0.4087 -0.197,0 -0.401,0 -0.574,-0.0236 l -1.068,2.6004 c 0.542,0.0994 1.091,0.1483 1.642,0.146 1.093,0.0205 2.179,-0.1814 3.189,-0.5929 1.01,-0.4115 1.922,-1.0238 2.68,-1.7984 0.794,-0.7365 1.424,-1.628 1.847,-2.6173 0.424,-0.9894 0.633,-2.0548 0.614,-3.1281 0.013,-1.0737 -0.198,-2.1386 -0.621,-3.1285 -0.423,-0.9898 -1.05,-1.8833 -1.84,-2.6247 z m -11.381,5.7532 c -0.003,-0.7127 0.138,-1.4189 0.415,-2.0779 0.276,-0.659 0.682,-1.2577 1.195,-1.7617 0.513,-0.504 1.122,-0.9032 1.792,-1.1748 0.67,-0.2715 1.389,-0.41 2.114,-0.4074 0.198,-7e-4 0.397,0.0085 0.594,0.0276 l 1.068,-2.6004 c -0.548,-0.1008 -1.104,-0.1509 -1.662,-0.1499 -1.091,-0.021 -2.174,0.1807 -3.181,0.5924 -1.008,0.4115 -1.918,1.0241 -2.672,1.7989 -0.784,0.7449 -1.403,1.6397 -1.822,2.6291 -0.418,0.9895 -0.626,2.0527 -0.611,3.1241 -0.017,1.0705 0.19,2.133 0.609,3.1215 0.418,0.9884 1.039,1.8816 1.824,2.6239 0.426,0.4232 0.897,0.8002 1.405,1.1246 l 1.08,-2.5807 c -0.184,-0.1397 -0.361,-0.2885 -0.53,-0.4459 -0.515,-0.5026 -0.923,-1.1017 -1.199,-1.7618 -0.275,-0.6602 -0.414,-1.368 -0.407,-2.0816"
       fill="#ffffff"
       id="path7" />
    <path
       d="m 169.655,36.8228 -1.669,4.0609 2.81,1.116 1.669,-4.0609 z"
       fill="#ffffff"
       id="path8" />
    <path
       d="m 179.449,13 -1.669,4.0608 2.81,1.116 1.669,-4.0608 z"
       fill="#ffffff"
       id="path9" />
    <path
       d="m 221.535,21.6283 h -0.991 v -0.9667 h 0.991 c 0.13,0 0.255,0.0506 0.348,0.1408 0.092,0.0901 0.145,0.2126 0.146,0.3406 0.001,0.0645 -0.011,0.1285 -0.036,0.1881 -0.025,0.0597 -0.062,0.1138 -0.109,0.1591 -0.046,0.0451 -0.1,0.0806 -0.16,0.1043 -0.06,0.0238 -0.124,0.0353 -0.189,0.0338 z m 0.803,0.0632 c 0.116,-0.1615 0.178,-0.3547 0.176,-0.5524 -0.003,-0.2548 -0.107,-0.4983 -0.29,-0.6789 -0.182,-0.1805 -0.43,-0.2837 -0.689,-0.2878 h -1.485 v 2.9198 h 0.494 v -0.9706 h 0.838 l 0.575,0.9706 h 0.57 l -0.591,-1.0496 c 0.179,-0.0689 0.332,-0.1901 0.438,-0.3472"
       fill="#ffffff"
       id="path10" />
    <path
       d="m 221.238,24.3906 c -0.546,0 -1.081,-0.1593 -1.535,-0.4578 -0.454,-0.2984 -0.808,-0.7227 -1.017,-1.219 -0.209,-0.4963 -0.263,-1.0423 -0.156,-1.5691 0.106,-0.5267 0.37,-1.0104 0.757,-1.39 0.386,-0.3795 0.879,-0.6378 1.415,-0.7421 0.536,-0.1043 1.091,-0.05 1.596,0.1561 0.505,0.2061 0.936,0.5547 1.238,1.0017 0.303,0.447 0.465,0.9722 0.464,1.5093 -0.001,0.7194 -0.293,1.4089 -0.81,1.9172 -0.518,0.5083 -1.22,0.7937 -1.952,0.7937 z m 0,-5.0232 c -0.465,0 -0.92,0.1356 -1.307,0.3897 -0.387,0.2541 -0.688,0.6152 -0.866,1.0377 -0.178,0.4225 -0.225,0.8875 -0.134,1.336 0.091,0.4486 0.315,0.8606 0.644,1.184 0.329,0.3234 0.748,0.5436 1.204,0.6329 0.456,0.0892 0.93,0.0434 1.36,-0.1316 0.429,-0.175 0.797,-0.4714 1.055,-0.8517 0.258,-0.3802 0.397,-0.8273 0.397,-1.2847 -0.006,-0.6102 -0.256,-1.1937 -0.696,-1.6237 -0.441,-0.43 -1.036,-0.6718 -1.657,-0.6728 z"
       fill="#ffffff"
       id="path11" />
  </g>
  <circle
     cx="35"
     cy="35"
     r="35"
     fill="#adcc14"
     id="circle11" />
  <path
     d="M 35,0 C 30.4037,0 25.8525,0.9053 21.6061,2.6642 17.3597,4.4231 13.5013,7.0012 10.2513,10.2513 7.0012,13.5013 4.4231,17.3597 2.6642,21.6061 0.9053,25.8525 0,30.4037 0,35 h 35 z"
     fill="url(#paint0_radial_1419_477)"
     id="path12"
     style="fill:url(#paint0_radial_1419_477)" />
  <path
     d="m 35,70 c 4.5963,0 9.1475,-0.9053 13.3939,-2.6642 4.2464,-1.7589 8.1048,-4.337 11.3548,-7.5871 3.2501,-3.25 5.8282,-7.1084 7.5871,-11.3548 C 69.0947,44.1475 70,39.5963 70,35 H 35 Z"
     fill="url(#paint1_radial_1419_477)"
     id="path13"
     style="fill:url(#paint1_radial_1419_477)" />
  <path
     d="M 90.922,62 V 36.2305 h 7.787 l 4.676,17.5781 4.623,-17.5781 h 7.804 V 62 h -4.833 V 41.7148 L 105.863,62 h -5.009 L 95.756,41.7148 V 62 Z m 30.023,-21.1992 v -4.5703 h 4.94 v 4.5703 z m 0,21.1992 V 43.332 h 4.94 V 62 Z m 26.297,-13.1484 -4.869,0.8789 c -0.164,-0.9727 -0.539,-1.7051 -1.125,-2.1973 -0.574,-0.4922 -1.324,-0.7383 -2.25,-0.7383 -1.23,0 -2.215,0.4278 -2.953,1.2832 -0.727,0.8438 -1.09,2.2617 -1.09,4.2539 0,2.2149 0.369,3.7793 1.107,4.6934 0.75,0.9141 1.752,1.3711 3.006,1.3711 0.938,0 1.705,-0.2637 2.303,-0.791 0.598,-0.5391 1.02,-1.459 1.266,-2.7598 l 4.851,0.8262 c -0.504,2.2265 -1.47,3.9082 -2.9,5.0449 -1.43,1.1367 -3.346,1.7051 -5.748,1.7051 -2.731,0 -4.91,-0.8614 -6.539,-2.584 -1.617,-1.7227 -2.426,-4.1074 -2.426,-7.1543 0,-3.082 0.814,-5.4785 2.443,-7.1895 1.629,-1.7226 3.832,-2.5839 6.61,-2.5839 2.273,0 4.078,0.4921 5.414,1.4765 1.347,0.9727 2.314,2.461 2.9,4.4649 z M 155.732,62 h -4.939 V 43.332 h 4.588 v 2.6543 c 0.785,-1.2539 1.488,-2.0801 2.109,-2.4785 0.633,-0.3984 1.348,-0.5976 2.145,-0.5976 1.125,0 2.209,0.3105 3.252,0.9316 l -1.53,4.3066 c -0.832,-0.539 -1.605,-0.8086 -2.32,-0.8086 -0.691,0 -1.277,0.1934 -1.758,0.5801 -0.48,0.375 -0.861,1.0606 -1.142,2.0567 -0.27,0.9961 -0.405,3.082 -0.405,6.2578 z m 8.157,-9.5977 c 0,-1.6406 0.404,-3.2285 1.213,-4.7636 0.808,-1.5352 1.951,-2.7071 3.427,-3.5157 1.489,-0.8085 3.147,-1.2128 4.975,-1.2128 2.824,0 5.139,0.9199 6.943,2.7597 1.805,1.8281 2.707,4.1426 2.707,6.9434 0,2.8242 -0.914,5.1679 -2.742,7.0312 -1.816,1.8516 -4.107,2.7774 -6.873,2.7774 -1.711,0 -3.346,-0.3867 -4.904,-1.1602 -1.547,-0.7734 -2.725,-1.9043 -3.533,-3.3926 -0.809,-1.5 -1.213,-3.3222 -1.213,-5.4668 z m 5.062,0.2637 c 0,1.8516 0.44,3.2695 1.319,4.2539 0.878,0.9844 1.962,1.4766 3.251,1.4766 1.29,0 2.368,-0.4922 3.235,-1.4766 0.879,-0.9844 1.318,-2.414 1.318,-4.289 0,-1.8282 -0.439,-3.2344 -1.318,-4.2188 -0.867,-0.9844 -1.945,-1.4766 -3.235,-1.4766 -1.289,0 -2.373,0.4922 -3.251,1.4766 -0.879,0.9844 -1.319,2.4024 -1.319,4.2539 z m 17.631,10.5645 5.643,0.6855 c 0.093,0.6563 0.31,1.1074 0.65,1.3535 0.469,0.3516 1.207,0.5274 2.215,0.5274 1.289,0 2.256,-0.1934 2.9,-0.5801 0.434,-0.2578 0.762,-0.6738 0.985,-1.248 0.152,-0.4102 0.228,-1.1661 0.228,-2.2676 v -2.7246 c -1.476,2.0156 -3.34,3.0234 -5.59,3.0234 -2.508,0 -4.494,-1.0605 -5.959,-3.1816 -1.148,-1.6758 -1.722,-3.7618 -1.722,-6.2579 0,-3.1289 0.75,-5.5195 2.25,-7.1718 1.511,-1.6524 3.386,-2.4785 5.625,-2.4785 2.308,0 4.213,1.0136 5.713,3.041 V 43.332 h 4.623 v 16.752 c 0,2.2031 -0.182,3.8496 -0.545,4.9394 -0.364,1.0899 -0.873,1.9454 -1.53,2.5664 -0.656,0.6211 -1.535,1.1075 -2.636,1.459 -1.09,0.3516 -2.473,0.5274 -4.149,0.5274 -3.164,0 -5.408,-0.545 -6.732,-1.6348 -1.324,-1.0781 -1.987,-2.4492 -1.987,-4.1133 0,-0.164 0.006,-0.3633 0.018,-0.5976 z m 4.412,-10.9512 c 0,1.9805 0.381,3.4336 1.143,4.3594 0.773,0.914 1.722,1.3711 2.847,1.3711 1.207,0 2.227,-0.4688 3.059,-1.4063 0.832,-0.9492 1.248,-2.3496 1.248,-4.2012 0,-1.9335 -0.398,-3.3691 -1.195,-4.3066 -0.797,-0.9375 -1.805,-1.4062 -3.024,-1.4062 -1.183,0 -2.162,0.4628 -2.935,1.3886 -0.762,0.9141 -1.143,2.3145 -1.143,4.2012 z m 21.744,-3.252 -4.482,-0.8085 c 0.504,-1.8047 1.371,-3.1407 2.601,-4.0079 1.231,-0.8671 3.059,-1.3007 5.485,-1.3007 2.203,0 3.844,0.2636 4.922,0.791 1.078,0.5156 1.834,1.1777 2.267,1.9863 0.446,0.7969 0.668,2.2676 0.668,4.4121 l -0.053,5.7656 c 0,1.6407 0.077,2.8536 0.229,3.6387 0.164,0.7734 0.463,1.6055 0.896,2.4961 h -4.886 c -0.129,-0.3281 -0.287,-0.8145 -0.475,-1.459 -0.082,-0.293 -0.14,-0.4863 -0.176,-0.5801 -0.843,0.8203 -1.746,1.4356 -2.707,1.8457 -0.961,0.4102 -1.986,0.6153 -3.076,0.6153 -1.922,0 -3.439,-0.5215 -4.553,-1.5645 -1.101,-1.0429 -1.652,-2.3613 -1.652,-3.9551 0,-1.0546 0.252,-1.9921 0.756,-2.8125 0.504,-0.832 1.207,-1.4648 2.109,-1.8984 0.914,-0.4453 2.227,-0.832 3.938,-1.1602 2.308,-0.4335 3.908,-0.8378 4.799,-1.2128 v -0.4922 c 0,-0.9492 -0.235,-1.6231 -0.703,-2.0215 -0.469,-0.4102 -1.354,-0.6152 -2.655,-0.6152 -0.879,0 -1.564,0.1757 -2.056,0.5273 -0.493,0.3398 -0.891,0.9434 -1.196,1.8105 z m 6.61,4.0079 c -0.633,0.2109 -1.635,0.4628 -3.006,0.7558 -1.371,0.293 -2.268,0.5801 -2.69,0.8613 -0.644,0.4571 -0.966,1.0372 -0.966,1.7403 0,0.6914 0.257,1.289 0.773,1.7929 0.516,0.504 1.172,0.7559 1.969,0.7559 0.89,0 1.74,-0.293 2.549,-0.8789 0.597,-0.4453 0.99,-0.9902 1.177,-1.6348 0.129,-0.4218 0.194,-1.2246 0.194,-2.4082 z m 18.298,-9.7032 v 3.9375 h -3.375 v 7.5235 c 0,1.5234 0.03,2.414 0.088,2.6718 0.071,0.2461 0.217,0.4512 0.44,0.6153 0.234,0.164 0.515,0.2461 0.844,0.2461 0.457,0 1.119,-0.1582 1.986,-0.4746 l 0.422,3.832 c -1.149,0.4922 -2.449,0.7383 -3.903,0.7383 -0.89,0 -1.693,-0.1465 -2.408,-0.4395 -0.715,-0.3047 -1.242,-0.6914 -1.582,-1.1601 -0.328,-0.4805 -0.556,-1.125 -0.685,-1.9336 -0.106,-0.5742 -0.159,-1.7344 -0.159,-3.4805 v -8.1387 h -2.267 V 43.332 h 2.267 v -3.709 l 4.957,-2.8828 v 6.5918 z m 14.239,12.7266 4.922,0.8262 c -0.633,1.8047 -1.635,3.1816 -3.006,4.1308 -1.36,0.9375 -3.065,1.4063 -5.115,1.4063 -3.247,0 -5.649,-1.0606 -7.207,-3.1817 -1.231,-1.6992 -1.846,-3.8437 -1.846,-6.4336 0,-3.0937 0.808,-5.5136 2.426,-7.2597 1.617,-1.7578 3.662,-2.6367 6.134,-2.6367 2.778,0 4.969,0.9199 6.575,2.7597 1.605,1.8281 2.373,4.6348 2.302,8.4199 h -12.375 c 0.035,1.4649 0.434,2.6075 1.196,3.4278 0.761,0.8086 1.711,1.2129 2.847,1.2129 0.774,0 1.424,-0.211 1.951,-0.6328 0.528,-0.4219 0.926,-1.1016 1.196,-2.0391 z m 0.281,-4.9922 c -0.035,-1.4297 -0.404,-2.5137 -1.107,-3.2519 -0.704,-0.75 -1.559,-1.125 -2.567,-1.125 -1.078,0 -1.969,0.3925 -2.672,1.1777 -0.703,0.7851 -1.049,1.8516 -1.037,3.1992 z M 264.594,62 258.688,43.332 h 4.798 l 3.498,12.2344 3.217,-12.2344 h 4.764 l 3.111,12.2344 3.569,-12.2344 h 4.869 L 280.52,62 h -4.747 L 272.557,49.9941 269.393,62 Z m 28.23,-12.9727 -4.482,-0.8085 c 0.504,-1.8047 1.371,-3.1407 2.601,-4.0079 1.231,-0.8671 3.059,-1.3007 5.485,-1.3007 2.203,0 3.843,0.2636 4.922,0.791 1.078,0.5156 1.834,1.1777 2.267,1.9863 0.445,0.7969 0.668,2.2676 0.668,4.4121 l -0.053,5.7656 c 0,1.6407 0.077,2.8536 0.229,3.6387 0.164,0.7734 0.463,1.6055 0.896,2.4961 h -4.886 c -0.129,-0.3281 -0.287,-0.8145 -0.475,-1.459 -0.082,-0.293 -0.141,-0.4863 -0.176,-0.5801 -0.843,0.8203 -1.746,1.4356 -2.707,1.8457 -0.961,0.4102 -1.986,0.6153 -3.076,0.6153 -1.922,0 -3.439,-0.5215 -4.553,-1.5645 -1.101,-1.0429 -1.652,-2.3613 -1.652,-3.9551 0,-1.0546 0.252,-1.9921 0.756,-2.8125 0.504,-0.832 1.207,-1.4648 2.109,-1.8984 0.914,-0.4453 2.227,-0.832 3.938,-1.1602 2.308,-0.4335 3.908,-0.8378 4.799,-1.2128 v -0.4922 c 0,-0.9492 -0.235,-1.6231 -0.704,-2.0215 -0.468,-0.4102 -1.353,-0.6152 -2.654,-0.6152 -0.879,0 -1.564,0.1757 -2.056,0.5273 -0.493,0.3398 -0.891,0.9434 -1.196,1.8105 z m 6.61,4.0079 c -0.633,0.2109 -1.635,0.4628 -3.006,0.7558 -1.371,0.293 -2.268,0.5801 -2.69,0.8613 -0.644,0.4571 -0.967,1.0372 -0.967,1.7403 0,0.6914 0.258,1.289 0.774,1.7929 0.516,0.504 1.172,0.7559 1.969,0.7559 0.89,0 1.74,-0.293 2.548,-0.8789 0.598,-0.4453 0.991,-0.9902 1.178,-1.6348 0.129,-0.4218 0.194,-1.2246 0.194,-2.4082 z m 7.4,-9.7032 h 5.256 l 4.465,13.2539 4.359,-13.2539 h 5.115 l -6.591,17.9649 -1.178,3.2519 c -0.434,1.0899 -0.85,1.9219 -1.248,2.4961 -0.387,0.5742 -0.838,1.0371 -1.354,1.3887 -0.504,0.3633 -1.131,0.6445 -1.881,0.8437 -0.738,0.1993 -1.576,0.2989 -2.513,0.2989 -0.95,0 -1.881,-0.0996 -2.795,-0.2989 l -0.44,-3.8671 c 0.774,0.1523 1.471,0.2285 2.092,0.2285 1.149,0 1.998,-0.3399 2.549,-1.0196 0.551,-0.6679 0.973,-1.5234 1.266,-2.5664 z"
     fill="#ffffff"
     id="path14" />
  <defs
     id="defs17">
    <radialGradient
       id="paint0_radial_1419_477"
       cx="0"
       cy="0"
       r="1"
       gradientUnits="userSpaceOnUse"
       gradientTransform="matrix(0,35,-35,0,35,35)">
      <stop
         stop-color="#70991F"
         id="stop14" />
      <stop
         offset="1"
         stop-color="#384D0F"
         id="stop15" />
    </radialGradient>
    <radialGradient
       id="paint1_radial_1419_477"
       cx="0"
       cy="0"
       r="1"
       gradientUnits="userSpaceOnUse"
       gradientTransform="matrix(0,35,-35,0,35,35)">
      <stop
         stop-color="#70991F"
         id="stop16" />
      <stop
         offset="1"
         stop-color="#384D0F"
         id="stop17" />
    </radialGradient>
  </defs>
</svg>
